<svg width="80" height="60" viewBox="0 0 80 60"  xmlns="http://www.w3.org/2000/svg">
  <!-- Arduino board outline -->
  <rect x="10" y="10" width="60" height="40" fill="#FFFFFF" stroke="#000000" stroke-width="1.5" rx="3"/>

  <!-- USB connector -->
  <rect x="5" y="22" width="8" height="16" fill="#666666" stroke="#000000" stroke-width="1"/>

  <!-- Power jack -->
  <circle cx="15" cy="15" r="3" fill="#FFFFFF" stroke="#000000" stroke-width="1"/>

  <!-- Digital pins (top) -->
  <g stroke="#000000" stroke-width="0.8">
    <line x1="20" y1="5" x2="20" y2="10"/>
    <line x1="25" y1="5" x2="25" y2="10"/>
    <line x1="30" y1="5" x2="30" y2="10"/>
    <line x1="35" y1="5" x2="35" y2="10"/>
    <line x1="40" y1="5" x2="40" y2="10"/>
    <line x1="45" y1="5" x2="45" y2="10"/>
    <line x1="50" y1="5" x2="50" y2="10"/>
    <line x1="55" y1="5" x2="55" y2="10"/>
    <line x1="60" y1="5" x2="60" y2="10"/>
    <line x1="65" y1="5" x2="65" y2="10"/>
  </g>

  <!-- Analog pins (bottom) -->
  <g stroke="#000000" stroke-width="0.8">
    <line x1="25" y1="50" x2="25" y2="55"/>
    <line x1="30" y1="50" x2="30" y2="55"/>
    <line x1="35" y1="50" x2="35" y2="55"/>
    <line x1="40" y1="50" x2="40" y2="55"/>
    <line x1="45" y1="50" x2="45" y2="55"/>
    <line x1="50" y1="50" x2="50" y2="55"/>
  </g>

  <!-- Arduino label -->
  <text x="40" y="32" font-family="'DM Sans', sans-serif" font-size="8" text-anchor="middle" fill="#000000">ARDUINO</text>

  <!-- Connection points -->
  <circle id="pin" cx="20" cy="5" r="1.5" fill="#000000"/>
  <circle id="pin" cx="25" cy="5" r="1.5" fill="#000000"/>
  <circle id="pin" cx="30" cy="5" r="1.5" fill="#000000"/>
  <circle id="pin" cx="35" cy="5" r="1.5" fill="#000000"/>
  <circle id="pin" cx="40" cy="5" r="1.5" fill="#000000"/>
  <circle id="pin" cx="45" cy="5" r="1.5" fill="#000000"/>
  <circle id="pin" cx="50" cy="5" r="1.5" fill="#000000"/>
  <circle id="pin" cx="55" cy="5" r="1.5" fill="#000000"/>
  <circle id="pin" cx="60" cy="5" r="1.5" fill="#000000"/>
  <circle id="pin" cx="65" cy="5" r="1.5" fill="#000000"/>

  <circle id="pin" cx="25" cy="55" r="1.5" fill="#000000"/>
  <circle id="pin" cx="30" cy="55" r="1.5" fill="#000000"/>
  <circle id="pin" cx="35" cy="55" r="1.5" fill="#000000"/>
  <circle id="pin" cx="40" cy="55" r="1.5" fill="#000000"/>
  <circle id="pin" cx="45" cy="55" r="1.5" fill="#000000"/>
  <circle id="pin" cx="50" cy="55" r="1.5" fill="#000000"/>
</svg>
