<svg width="60" height="30" viewBox="0 0 60 30"  xmlns="http://www.w3.org/2000/svg">
  <!-- Connector housing -->
  <rect x="15" y="8" width="30" height="14"  stroke="#000" stroke-width="1.5" rx="2"/>

  <!-- Connector pins -->
  <rect x="20" y="10" width="3" height="10"  stroke="#000" stroke-width="1"/>
  <rect x="25" y="10" width="3" height="10"  stroke="#000" stroke-width="1"/>
  <rect x="30" y="10" width="3" height="10"  stroke="#000" stroke-width="1"/>
  <rect x="35" y="10" width="3" height="10"  stroke="#000" stroke-width="1"/>

  <!-- Left leads -->
  <line x1="0" y1="12" x2="15" y2="12" stroke="#000" stroke-width="1.5"/>
  <line x1="0" y1="15" x2="15" y2="15" stroke="#000" stroke-width="1.5"/>
  <line x1="0" y1="18" x2="15" y2="18" stroke="#000" stroke-width="1.5"/>

  <!-- Right leads -->
  <line x1="45" y1="12" x2="60" y2="12" stroke="#000" stroke-width="1.5"/>
  <line x1="45" y1="15" x2="60" y2="15" stroke="#000" stroke-width="1.5"/>
  <line x1="45" y1="18" x2="60" y2="18" stroke="#000" stroke-width="1.5"/>

  <!-- Connection points -->
  <circle cx="0" cy="12" r="1.5" fill="#000"/>
  <circle cx="0" cy="15" r="1.5" fill="#000"/>
  <circle cx="0" cy="18" r="1.5" fill="#000"/>
  <circle cx="60" cy="12" r="1.5" fill="#000"/>
  <circle cx="60" cy="15" r="1.5" fill="#000"/>
  <circle cx="60" cy="18" r="1.5" fill="#000"/>
</svg>
