<svg width="32" height="32" viewBox="0 0 32 32" xmlns="http://www.w3.org/2000/svg">
  <!-- LCD Display Symbol -->
  <!-- Outer frame -->
  <rect x="4" y="8" width="24" height="16" fill="none" stroke="#000000" stroke-width="1.5" rx="1"/>

  <!-- Screen area -->
  <rect x="6" y="10" width="20" height="12" fill="none" stroke="#000000" stroke-width="1"/>

  <!-- Display segments/lines -->
  <line x1="8" y1="13" x2="24" y2="13" stroke="#000000" stroke-width="0.8"/>
  <line x1="8" y1="16" x2="20" y2="16" stroke="#000000" stroke-width="0.8"/>
  <line x1="8" y1="19" x2="22" y2="19" stroke="#000000" stroke-width="0.8"/>

  <!-- Connection pins -->
  <rect x="2" y="11" width="2" height="1" fill="#000000"/>
  <rect x="2" y="13.5" width="2" height="1" fill="#000000"/>
  <rect x="2" y="16" width="2" height="1" fill="#000000"/>
  <rect x="2" y="18.5" width="2" height="1" fill="#000000"/>

  <rect x="28" y="11" width="2" height="1" fill="#000000"/>
  <rect x="28" y="13.5" width="2" height="1" fill="#000000"/>
  <rect x="28" y="16" width="2" height="1" fill="#000000"/>
  <rect x="28" y="18.5" width="2" height="1" fill="#000000"/>

  <!-- CONNECTION PINS -->
  <circle id="pin" cx="2" cy="11.5" r="1.5" fill="#000000"/>
  <circle id="pin" cx="2" cy="14" r="1.5" fill="#000000"/>
  <circle id="pin" cx="2" cy="16.5" r="1.5" fill="#000000"/>
  <circle id="pin" cx="2" cy="19" r="1.5" fill="#000000"/>
  <circle id="pin" cx="30" cy="11.5" r="1.5" fill="#000000"/>
  <circle id="pin" cx="30" cy="14" r="1.5" fill="#000000"/>
  <circle id="pin" cx="30" cy="16.5" r="1.5" fill="#000000"/>
  <circle id="pin" cx="30" cy="19" r="1.5" fill="#000000"/>
</svg>
