<svg width="32" height="32" viewBox="0 0 32 32" xmlns="http://www.w3.org/2000/svg">
  <!-- Microcontroller Symbol -->
  <!-- Main IC body -->
  <rect x="8" y="8" width="16" height="16" fill="none" stroke="#000000" stroke-width="1.5" rx="1"/>

  <!-- IC identifier -->
  <text x="16" y="17" font-family="'DM Sans', sans-serif" font-size="3" fill="#000000" text-anchor="middle">μC</text>

  <!-- Pin 1 indicator (notch) -->
  <path d="M 8 8 Q 10 6 12 8" fill="none" stroke="#000000" stroke-width="1"/>

  <!-- Left side pins -->
  <rect x="6" y="9" width="2" height="1" fill="#000000"/>
  <rect x="6" y="11.5" width="2" height="1" fill="#000000"/>
  <rect x="6" y="14" width="2" height="1" fill="#000000"/>
  <rect x="6" y="16.5" width="2" height="1" fill="#000000"/>
  <rect x="6" y="19" width="2" height="1" fill="#000000"/>
  <rect x="6" y="21.5" width="2" height="1" fill="#000000"/>

  <!-- Right side pins -->
  <rect x="24" y="9" width="2" height="1" fill="#000000"/>
  <rect x="24" y="11.5" width="2" height="1" fill="#000000"/>
  <rect x="24" y="14" width="2" height="1" fill="#000000"/>
  <rect x="24" y="16.5" width="2" height="1" fill="#000000"/>
  <rect x="24" y="19" width="2" height="1" fill="#000000"/>
  <rect x="24" y="21.5" width="2" height="1" fill="#000000"/>

  <!-- Top pins -->
  <rect x="10" y="6" width="1" height="2" fill="#000000"/>
  <rect x="12.5" y="6" width="1" height="2" fill="#000000"/>
  <rect x="15" y="6" width="1" height="2" fill="#000000"/>
  <rect x="17.5" y="6" width="1" height="2" fill="#000000"/>
  <rect x="20" y="6" width="1" height="2" fill="#000000"/>

  <!-- Bottom pins -->
  <rect x="10" y="24" width="1" height="2" fill="#000000"/>
  <rect x="12.5" y="24" width="1" height="2" fill="#000000"/>
  <rect x="15" y="24" width="1" height="2" fill="#000000"/>
  <rect x="17.5" y="24" width="1" height="2" fill="#000000"/>
  <rect x="20" y="24" width="1" height="2" fill="#000000"/>

  <!-- Internal details -->
  <circle cx="12" cy="12" r="0.5" fill="#000000"/>
  <circle cx="20" cy="12" r="0.5" fill="#000000"/>
  <circle cx="16" cy="20" r="0.5" fill="#000000"/>

  <!-- CONNECTION PINS -->
  <!-- Left side pins -->
  <circle id="pin" cx="6" cy="9.5" r="1.5" fill="#000000"/>
  <circle id="pin" cx="6" cy="12" r="1.5" fill="#000000"/>
  <circle id="pin" cx="6" cy="14.5" r="1.5" fill="#000000"/>
  <circle id="pin" cx="6" cy="17" r="1.5" fill="#000000"/>
  <circle id="pin" cx="6" cy="19.5" r="1.5" fill="#000000"/>
  <circle id="pin" cx="6" cy="22" r="1.5" fill="#000000"/>

  <!-- Right side pins -->
  <circle id="pin" cx="26" cy="9.5" r="1.5" fill="#000000"/>
  <circle id="pin" cx="26" cy="12" r="1.5" fill="#000000"/>
  <circle id="pin" cx="26" cy="14.5" r="1.5" fill="#000000"/>
  <circle id="pin" cx="26" cy="17" r="1.5" fill="#000000"/>
  <circle id="pin" cx="26" cy="19.5" r="1.5" fill="#000000"/>
  <circle id="pin" cx="26" cy="22" r="1.5" fill="#000000"/>

  <!-- Top pins -->
  <circle id="pin" cx="10.5" cy="6" r="1.5" fill="#000000"/>
  <circle id="pin" cx="13" cy="6" r="1.5" fill="#000000"/>
  <circle id="pin" cx="15.5" cy="6" r="1.5" fill="#000000"/>
  <circle id="pin" cx="18" cy="6" r="1.5" fill="#000000"/>
  <circle id="pin" cx="20.5" cy="6" r="1.5" fill="#000000"/>

  <!-- Bottom pins -->
  <circle id="pin" cx="10.5" cy="26" r="1.5" fill="#000000"/>
  <circle id="pin" cx="13" cy="26" r="1.5" fill="#000000"/>
  <circle id="pin" cx="15.5" cy="26" r="1.5" fill="#000000"/>
  <circle id="pin" cx="18" cy="26" r="1.5" fill="#000000"/>
  <circle id="pin" cx="20.5" cy="26" r="1.5" fill="#000000"/>
</svg>
