<svg width="70" height="50" viewBox="0 0 70 50"  xmlns="http://www.w3.org/2000/svg">
  <!-- IC package outline -->
  <rect x="10" y="10" width="50" height="30" fill="#FFFFFF" stroke="#000000" stroke-width="1.5" rx="2"/>

  <!-- Pin 1 indicator (small circle) -->
  <circle cx="15" cy="15" r="2" fill="#000000"/>

  <!-- Left side pins -->
  <line x1="0" y1="15" x2="10" y2="15" stroke="#000000" stroke-width="1"/>
  <line x1="0" y1="20" x2="10" y2="20" stroke="#000000" stroke-width="1"/>
  <line x1="0" y1="25" x2="10" y2="25" stroke="#000000" stroke-width="1"/>
  <line x1="0" y1="30" x2="10" y2="30" stroke="#000000" stroke-width="1"/>
  <line x1="0" y1="35" x2="10" y2="35" stroke="#000000" stroke-width="1"/>

  <!-- Right side pins -->
  <line x1="60" y1="15" x2="70" y2="15" stroke="#000000" stroke-width="1"/>
  <line x1="60" y1="20" x2="70" y2="20" stroke="#000000" stroke-width="1"/>
  <line x1="60" y1="25" x2="70" y2="25" stroke="#000000" stroke-width="1"/>
  <line x1="60" y1="30" x2="70" y2="30" stroke="#000000" stroke-width="1"/>
  <line x1="60" y1="35" x2="70" y2="35" stroke="#000000" stroke-width="1"/>

  <!-- IC label -->
  <text x="35" y="28" font-family="Arial" font-size="8" text-anchor="middle" fill="#000000">OP-AMP</text>

  <!-- Connection points -->
  <circle id="pin" cx="0" cy="15" r="1.5" fill="#000000"/>
  <circle id="pin" cx="0" cy="20" r="1.5" fill="#000000"/>
  <circle id="pin" cx="0" cy="25" r="1.5" fill="#000000"/>
  <circle id="pin" cx="0" cy="30" r="1.5" fill="#000000"/>
  <circle id="pin" cx="0" cy="35" r="1.5" fill="#000000"/>
  <circle id="pin" cx="70" cy="15" r="1.5" fill="#000000"/>
  <circle id="pin" cx="70" cy="20" r="1.5" fill="#000000"/>
  <circle id="pin" cx="70" cy="25" r="1.5" fill="#000000"/>
  <circle id="pin" cx="70" cy="30" r="1.5" fill="#000000"/>
  <circle id="pin" cx="70" cy="35" r="1.5" fill="#000000"/>
</svg>
