<?xml version="1.0" standalone="no"?>
 <!DOCTYPE svg PUBLIC "-//W3C//DTD SVG 1.1//EN" 
 "http://www.w3.org/Graphics/SVG/1.1/DTD/svg11.dtd"> 
<svg
  xmlns:svg="http://www.w3.org/2000/svg"
  xmlns="http://www.w3.org/2000/svg"
  xmlns:xlink="http://www.w3.org/1999/xlink"
  version="1.1"
  width="5.0292mm" height="10.0584mm" viewBox="0.0000 0.0000 5.0292 10.0584">
<title>SVG Image created as R_unit1.svg date 2025/09/11 10:49:31 </title>
  <desc>Image generated by Eeschema-SVG </desc>
<g style="fill:#000000; fill-opacity:1.0000;stroke:#000000; stroke-opacity:1.0000;
stroke-linecap:round; stroke-linejoin:round;"
 transform="translate(0 0) scale(1 1)">
</g>
<g style="fill:none; 
stroke:#840000; stroke-width:0.2540; stroke-opacity:1; 
stroke-linecap:round; stroke-linejoin:round;">
<rect x="0.543300" y="2.489200" width="2.032000" height="5.080000" rx="0.000000" />
</g>
<g style="fill:none; 
stroke:#840000; stroke-width:0.1524; stroke-opacity:1; 
stroke-linecap:round; stroke-linejoin:round;">
<path d="M1.5593 2.4892
L1.5593 1.2192
" />
<path d="M1.5593 7.5692
L1.5593 8.8392
" />
</g>
<g style="fill:none; 
stroke:#006464; stroke-width:0.1524; stroke-opacity:1; 
stroke-linecap:round; stroke-linejoin:round;">
<g transform="rotate(-90.000000 1.0767 0.0000)">
<text x="1.0767" y="0.6350"
textLength="2.5618" font-size="1.6933" lengthAdjust="spacingAndGlyphs"
text-anchor="middle" opacity="0" stroke-opacity="0">R?</text>
</g>
<g class="stroked-text"><desc>R?</desc>
<path d="M1.6562 0.1512
L1.0515 0.5745
" />
<path d="M1.6562 0.8769
L0.3862 0.8769
" />
<path d="M0.3862 0.8769
L0.3862 0.3931
" />
<path d="M0.3862 0.3931
L0.4467 0.2721
" />
<path d="M0.4467 0.2721
L0.5072 0.2116
" />
<path d="M0.5072 0.2116
L0.6281 0.1512
" />
<path d="M0.6281 0.1512
L0.8096 0.1512
" />
<path d="M0.8096 0.1512
L0.9305 0.2116
" />
<path d="M0.9305 0.2116
L0.9910 0.2721
" />
<path d="M0.9910 0.2721
L1.0515 0.3931
" />
<path d="M1.0515 0.3931
L1.0515 0.8769
" />
<path d="M1.5353 -0.5745
L1.5958 -0.6349
" />
<path d="M1.5958 -0.6349
L1.6562 -0.5745
" />
<path d="M1.6562 -0.5745
L1.5958 -0.5140
" />
<path d="M1.5958 -0.5140
L1.5353 -0.5745
" />
<path d="M1.5353 -0.5745
L1.6562 -0.5745
" />
<path d="M0.4467 -0.3326
L0.3862 -0.4535
" />
<path d="M0.3862 -0.4535
L0.3862 -0.7559
" />
<path d="M0.3862 -0.7559
L0.4467 -0.8768
" />
<path d="M0.4467 -0.8768
L0.5677 -0.9373
" />
<path d="M0.5677 -0.9373
L0.6886 -0.9373
" />
<path d="M0.6886 -0.9373
L0.8096 -0.8768
" />
<path d="M0.8096 -0.8768
L0.8700 -0.8164
" />
<path d="M0.8700 -0.8164
L0.9305 -0.6954
" />
<path d="M0.9305 -0.6954
L0.9910 -0.6349
" />
<path d="M0.9910 -0.6349
L1.1119 -0.5745
" />
<path d="M1.1119 -0.5745
L1.1724 -0.5745
" />
</g><g transform="rotate(-90.000000 -0.9553 0.0000)">
<text x="-0.9553" y="0.6350"
textLength="1.4732" font-size="1.6933" lengthAdjust="spacingAndGlyphs"
text-anchor="middle" opacity="0" stroke-opacity="0">R</text>
</g>
<g class="stroked-text"><desc>R</desc>
<path d="M-0.3758 -0.3930
L-0.9804 0.0302
" />
<path d="M-0.3758 0.3326
L-1.6457 0.3326
" />
<path d="M-1.6457 0.3326
L-1.6457 -0.1511
" />
<path d="M-1.6457 -0.1511
L-1.5852 -0.2721
" />
<path d="M-1.5852 -0.2721
L-1.5247 -0.3326
" />
<path d="M-1.5247 -0.3326
L-1.4038 -0.3930
" />
<path d="M-1.4038 -0.3930
L-1.2223 -0.3930
" />
<path d="M-1.2223 -0.3930
L-1.1014 -0.3326
" />
<path d="M-1.1014 -0.3326
L-1.0409 -0.2721
" />
<path d="M-1.0409 -0.2721
L-0.9804 -0.1511
" />
<path d="M-0.9804 -0.1511
L-0.9804 0.3326
" />
</g></g> 
</svg>
