<svg width="32" height="32" viewBox="0 0 32 32" xmlns="http://www.w3.org/2000/svg">
  <!-- Temperature Sensor Symbol -->
  <!-- Sensor body -->
  <rect x="12" y="6" width="8" height="12" fill="none" stroke="#000000" stroke-width="1.5" rx="1"/>

  <!-- Temperature bulb -->
  <circle cx="16" cy="22" r="4" fill="none" stroke="#000000" stroke-width="1.5"/>

  <!-- Mercury/sensing element -->
  <circle cx="16" cy="22" r="2.5" fill="#000000" opacity="0.3"/>
  <rect x="15" y="8" width="2" height="12" fill="#000000"/>

  <!-- Temperature markings -->
  <line x1="10" y1="8" x2="12" y2="8" stroke="#000000" stroke-width="0.8"/>
  <line x1="10" y1="11" x2="12" y2="11" stroke="#000000" stroke-width="0.8"/>
  <line x1="10" y1="14" x2="12" y2="14" stroke="#000000" stroke-width="0.8"/>
  <line x1="10" y1="17" x2="12" y2="17" stroke="#000000" stroke-width="0.8"/>

  <line x1="20" y1="8" x2="22" y2="8" stroke="#000000" stroke-width="0.8"/>
  <line x1="20" y1="11" x2="22" y2="11" stroke="#000000" stroke-width="0.8"/>
  <line x1="20" y1="14" x2="22" y2="14" stroke="#000000" stroke-width="0.8"/>
  <line x1="20" y1="17" x2="22" y2="17" stroke="#000000" stroke-width="0.8"/>

  <!-- Connection wires -->
  <line x1="14" y1="4" x2="14" y2="6" stroke="#000000" stroke-width="1.5"/>
  <line x1="18" y1="4" x2="18" y2="6" stroke="#000000" stroke-width="1.5"/>

  <!-- Terminal dots -->
  <circle cx="14" cy="4" r="1" fill="#000000"/>
  <circle cx="18" cy="4" r="1" fill="#000000"/>

  <!-- Temperature indicator -->
  <text x="16" y="30" font-family="'DM Sans', sans-serif" font-size="2.5" fill="#000000" text-anchor="middle">TEMP</text>

  <!-- Degree symbol -->
  <circle cx="9" cy="8" r="1" fill="none" stroke="#000000" stroke-width="0.5"/>
  <text x="7" y="7" font-family="'DM Sans', sans-serif" font-size="2" fill="#000000">°</text>

    <!-- CONNECTION PINS -->
  <circle id="pin" cx="12" cy="26" r="1.5" fill="#000000"/>
  <circle id="pin" cx="16" cy="26" r="1.5" fill="#000000"/>
  <circle id="pin" cx="20" cy="26" r="1.5" fill="#000000"/>
</svg>
